<svg width="32" height="32" viewBox="0 0 32 32" fill="none" xmlns="http://www.w3.org/2000/svg">
<path d="M25.3316 22.6651H27.9981C28.798 22.6651 29.3313 22.1318 29.3313 21.3319V17.3322C29.3313 16.1322 28.3981 15.0656 27.3315 14.799C24.9316 14.1324 21.3319 13.3324 21.3319 13.3324C21.3319 13.3324 19.5987 11.4659 18.3988 10.266C17.7321 9.73267 16.9322 9.3327 15.9989 9.3327H6.66623C5.86628 9.3327 5.19966 9.866 4.79969 10.5326L2.93315 14.399C2.7566 14.914 2.6665 15.4546 2.6665 15.9989V21.3319C2.6665 22.1318 3.1998 22.6651 3.99975 22.6651H6.66623" stroke="#3B82F6" stroke-width="2.66648" stroke-linecap="round" stroke-linejoin="round"/>
<path d="M9.33268 25.3316C10.8053 25.3316 11.9992 24.1378 11.9992 22.6651C11.9992 21.1925 10.8053 19.9986 9.33268 19.9986C7.86002 19.9986 6.6662 21.1925 6.6662 22.6651C6.6662 24.1378 7.86002 25.3316 9.33268 25.3316Z" stroke="#3B82F6" stroke-width="2.66648" stroke-linecap="round" stroke-linejoin="round"/>
<path d="M11.9991 22.6651H19.9986" stroke="#3B82F6" stroke-width="2.66648" stroke-linecap="round" stroke-linejoin="round"/>
<path d="M22.6651 25.3316C24.1377 25.3316 25.3316 24.1378 25.3316 22.6651C25.3316 21.1925 24.1377 19.9986 22.6651 19.9986C21.1924 19.9986 19.9986 21.1925 19.9986 22.6651C19.9986 24.1378 21.1924 25.3316 22.6651 25.3316Z" stroke="#3B82F6" stroke-width="2.66648" stroke-linecap="round" stroke-linejoin="round"/>
</svg>
